<?xml version="1.0" encoding="utf-8"?>
<!-- Generator: Adobe Illustrator 16.0.0, SVG Export Plug-In . SVG Version: 6.00 Build 0)  -->
<!DOCTYPE svg PUBLIC "-//W3C//DTD SVG 1.1//EN" "http://www.w3.org/Graphics/SVG/1.1/DTD/svg11.dtd">
<svg version="1.1" id="Layer_1" xmlns="http://www.w3.org/2000/svg" xmlns:xlink="http://www.w3.org/1999/xlink" x="0px" y="0px"
	 width="346px" height="124px" viewBox="0 0 346 124" enable-background="new 0 0 346 124" xml:space="preserve">
<g>
	<path fill="#E63C2A" d="M2.805,7.429c0-1.011,0.023-1.791,0.069-2.338C2.919,4.543,3.081,4.143,3.356,3.89
		c0.276-0.252,0.713-0.4,1.312-0.442C5.265,3.406,6.116,3.384,7.22,3.384h21.521c3.448,0,6.104,0.063,7.967,0.189
		s3.218,0.559,4.069,1.296c0.851,0.738,1.356,1.886,1.518,3.445c0.161,1.559,0.241,3.792,0.241,6.7c0,2.907-0.08,5.141-0.241,6.7
		c-0.161,1.56-0.667,2.708-1.518,3.445c-0.852,0.738-2.207,1.169-4.069,1.295c-1.862,0.126-4.496,0.19-7.898,0.19l12.899,11.819
		c0.597,0.548,1.045,0.97,1.345,1.264c0.299,0.295,0.448,0.591,0.448,0.885c0,0.211-0.172,0.517-0.518,0.917
		c-0.345,0.401-0.759,0.812-1.241,1.232c-0.482,0.422-0.955,0.79-1.414,1.106c-0.46,0.316-0.782,0.474-0.966,0.474
		c-0.275,0-0.586-0.138-0.931-0.411c-0.346-0.273-0.794-0.664-1.346-1.169L19.498,26.644H9.427v14.158
		c0,0.758-0.023,1.338-0.068,1.738c-0.047,0.401-0.173,0.695-0.38,0.885c-0.207,0.189-0.529,0.306-0.966,0.348
		c-0.438,0.042-1.069,0.063-1.896,0.063c-0.828,0-1.461-0.021-1.897-0.063c-0.438-0.042-0.759-0.158-0.965-0.348
		c-0.207-0.19-0.335-0.484-0.38-0.885c-0.046-0.4-0.069-0.979-0.069-1.738V7.429z M28.741,20.576c1.793,0,3.173-0.032,4.139-0.095
		c0.965-0.063,1.666-0.273,2.104-0.632c0.437-0.357,0.7-0.905,0.793-1.643c0.092-0.737,0.138-1.801,0.138-3.192
		s-0.046-2.454-0.138-3.192c-0.093-0.737-0.356-1.285-0.793-1.644c-0.438-0.357-1.139-0.569-2.104-0.632
		c-0.966-0.063-2.346-0.095-4.139-0.095H9.427v11.124H28.741z"/>
	<path fill="#E63C2A" d="M77.853,37.768c0.828,0,1.459,0.022,1.896,0.063c0.437,0.042,0.759,0.158,0.966,0.348
		c0.207,0.189,0.333,0.485,0.38,0.885c0.045,0.401,0.068,0.979,0.068,1.738c0,0.758-0.023,1.338-0.068,1.738
		c-0.047,0.401-0.173,0.695-0.38,0.885c-0.207,0.189-0.529,0.306-0.966,0.348c-0.438,0.042-1.068,0.063-1.896,0.063h-12.14
		c-2.944,0-5.415-0.032-7.416-0.095c-2-0.063-3.655-0.242-4.966-0.537c-1.311-0.294-2.323-0.769-3.035-1.422
		c-0.714-0.653-1.23-1.58-1.552-2.781c-0.322-1.201-0.518-2.718-0.587-4.551c-0.068-1.833-0.104-4.097-0.104-6.794
		c0-2.696,0.035-4.962,0.104-6.794c0.069-1.833,0.265-3.35,0.587-4.551c0.321-1.201,0.838-2.127,1.552-2.781
		c0.712-0.653,1.725-1.127,3.035-1.422c1.311-0.294,2.966-0.474,4.966-0.537c2.001-0.063,4.472-0.095,7.416-0.095
		c2.941,0,5.414,0.032,7.415,0.095c2,0.063,3.655,0.243,4.966,0.537c1.311,0.295,2.321,0.759,3.035,1.391
		c0.713,0.632,1.229,1.507,1.552,2.623c0.321,1.117,0.518,2.528,0.587,4.235c0.068,1.707,0.104,3.803,0.104,6.289
		c0,1.011-0.024,1.792-0.069,2.338c-0.046,0.548-0.207,0.948-0.482,1.201c-0.276,0.253-0.714,0.401-1.311,0.442
		c-0.599,0.042-1.449,0.063-2.553,0.063h-24.28c0,1.77,0.046,3.129,0.138,4.077c0.092,0.948,0.38,1.643,0.862,2.085
		c0.483,0.442,1.242,0.706,2.276,0.79c1.035,0.085,2.518,0.126,4.449,0.126H77.853z M76.749,24.622c0-1.77-0.047-3.129-0.138-4.077
		c-0.093-0.948-0.38-1.643-0.862-2.085c-0.483-0.443-1.242-0.706-2.276-0.79c-1.035-0.084-2.518-0.126-4.449-0.126h-6.622
		c-1.932,0-3.414,0.042-4.449,0.126c-1.034,0.084-1.793,0.347-2.276,0.79c-0.482,0.442-0.771,1.138-0.862,2.085
		c-0.092,0.948-0.138,2.307-0.138,4.077H76.749z"/>
	<path fill="#E63C2A" d="M111.513,37.768c0.966,0,1.701-0.021,2.207-0.063c0.506-0.042,0.885-0.179,1.139-0.411
		c0.252-0.231,0.402-0.579,0.448-1.042c0.045-0.463,0.069-1.138,0.069-2.023c0-0.885-0.024-1.558-0.069-2.022
		c-0.046-0.463-0.196-0.811-0.448-1.043c-0.254-0.231-0.633-0.368-1.139-0.411c-0.506-0.042-1.241-0.063-2.207-0.063h-12.14
		c-2.621,0-4.634-0.052-6.036-0.158c-1.403-0.105-2.438-0.463-3.104-1.075c-0.667-0.61-1.059-1.559-1.173-2.844
		c-0.115-1.285-0.173-3.128-0.173-5.53s0.058-4.245,0.173-5.531c0.114-1.285,0.506-2.233,1.173-2.844
		c0.666-0.61,1.7-0.969,3.104-1.075c1.402-0.104,3.415-0.158,6.036-0.158h18.21c0.827,0,1.459,0.021,1.896,0.063
		c0.437,0.042,0.759,0.158,0.966,0.348c0.207,0.19,0.333,0.485,0.38,0.885c0.045,0.401,0.068,0.98,0.068,1.738
		c0,0.759-0.023,1.338-0.068,1.738c-0.047,0.401-0.173,0.695-0.38,0.885c-0.207,0.19-0.529,0.306-0.966,0.348
		c-0.438,0.042-1.069,0.063-1.896,0.063h-18.21c-0.966,0-1.702,0.021-2.208,0.063c-0.506,0.042-0.886,0.18-1.138,0.411
		c-0.253,0.232-0.403,0.58-0.448,1.043c-0.047,0.464-0.069,1.138-0.069,2.023c0,0.885,0.022,1.559,0.069,2.022
		c0.045,0.464,0.195,0.812,0.448,1.043c0.252,0.232,0.632,0.369,1.138,0.411c0.506,0.042,1.242,0.063,2.208,0.063h12.14
		c2.621,0,4.633,0.053,6.036,0.158c1.401,0.106,2.437,0.464,3.104,1.075c0.666,0.611,1.058,1.559,1.173,2.844
		c0.114,1.286,0.172,3.128,0.172,5.53s-0.058,4.246-0.172,5.531c-0.115,1.286-0.507,2.234-1.173,2.844
		c-0.667,0.611-1.702,0.97-3.104,1.074c-1.403,0.106-3.415,0.158-6.036,0.158H92.199c-0.828,0-1.461-0.021-1.897-0.063
		c-0.438-0.042-0.759-0.158-0.966-0.348c-0.206-0.19-0.334-0.484-0.379-0.885c-0.046-0.4-0.069-0.979-0.069-1.738
		c0-0.759,0.023-1.337,0.069-1.738c0.045-0.4,0.173-0.695,0.379-0.885c0.207-0.19,0.528-0.305,0.966-0.348
		c0.437-0.042,1.069-0.063,1.897-0.063H111.513z"/>
	<path fill="#E63C2A" d="M135.241,17.542h-6.621c-0.828,0-1.461-0.021-1.897-0.063c-0.438-0.042-0.759-0.158-0.966-0.348
		c-0.207-0.189-0.334-0.484-0.379-0.885c-0.047-0.4-0.069-0.979-0.069-1.738c0-0.758,0.022-1.337,0.069-1.738
		c0.045-0.4,0.172-0.695,0.379-0.885c0.207-0.189,0.528-0.305,0.966-0.348c0.437-0.042,1.069-0.063,1.897-0.063h6.621V6.418
		c0-0.758,0.023-1.337,0.069-1.738c0.045-0.4,0.173-0.695,0.38-0.885c0.206-0.189,0.527-0.305,0.965-0.348
		c0.437-0.042,1.069-0.063,1.897-0.063c0.827,0,1.459,0.021,1.896,0.063c0.437,0.042,0.759,0.158,0.966,0.348
		c0.207,0.19,0.333,0.485,0.38,0.885c0.045,0.401,0.068,0.98,0.068,1.738v5.057h6.622c0.828,0,1.459,0.021,1.896,0.063
		c0.437,0.042,0.759,0.158,0.966,0.348c0.207,0.19,0.333,0.485,0.38,0.885c0.045,0.401,0.068,0.98,0.068,1.738
		c0,0.759-0.023,1.338-0.068,1.738c-0.047,0.401-0.173,0.695-0.38,0.885c-0.207,0.19-0.529,0.306-0.966,0.348
		c-0.438,0.042-1.068,0.063-1.896,0.063h-6.622v23.26c0,0.758-0.023,1.338-0.068,1.738c-0.047,0.401-0.173,0.695-0.38,0.885
		c-0.207,0.189-0.529,0.306-0.966,0.348c-0.438,0.042-1.069,0.063-1.896,0.063c-0.828,0-1.461-0.021-1.897-0.063
		c-0.438-0.042-0.759-0.158-0.965-0.348c-0.207-0.19-0.335-0.484-0.38-0.885c-0.046-0.4-0.069-0.979-0.069-1.738V17.542z"/>
	<path fill="#E63C2A" d="M183.802,37.768c0.827,0,1.459,0.022,1.896,0.063c0.437,0.042,0.759,0.158,0.966,0.348
		c0.207,0.189,0.333,0.485,0.38,0.885c0.045,0.401,0.068,0.979,0.068,1.738c0,0.758-0.023,1.338-0.068,1.738
		c-0.047,0.401-0.173,0.695-0.38,0.885c-0.207,0.189-0.529,0.306-0.966,0.348c-0.438,0.042-1.069,0.063-1.896,0.063h-9.933
		c-2.944,0-5.415-0.032-7.416-0.095c-2-0.063-3.655-0.242-4.966-0.537c-1.311-0.294-2.323-0.769-3.035-1.422
		c-0.714-0.653-1.23-1.58-1.552-2.781c-0.322-1.201-0.518-2.718-0.587-4.551c-0.068-1.833-0.104-4.097-0.104-6.794
		c0-2.696,0.035-4.962,0.104-6.794c0.069-1.833,0.265-3.35,0.587-4.551c0.321-1.201,0.838-2.127,1.552-2.781
		c0.712-0.653,1.725-1.127,3.035-1.422c1.311-0.294,2.966-0.474,4.966-0.537c2.001-0.063,4.472-0.095,7.416-0.095h9.933
		c0.827,0,1.459,0.021,1.896,0.063c0.437,0.042,0.759,0.158,0.966,0.348c0.207,0.19,0.333,0.485,0.38,0.885
		c0.045,0.401,0.068,0.98,0.068,1.738c0,0.759-0.023,1.338-0.068,1.738c-0.047,0.401-0.173,0.695-0.38,0.885
		c-0.207,0.19-0.529,0.306-0.966,0.348c-0.438,0.042-1.069,0.063-1.896,0.063h-9.933c-2.76,0-4.887,0.053-6.381,0.158
		c-1.495,0.106-2.587,0.474-3.276,1.106c-0.69,0.632-1.093,1.633-1.207,3.002c-0.115,1.37-0.173,3.318-0.173,5.847
		s0.058,4.478,0.173,5.847c0.114,1.37,0.517,2.37,1.207,3.002c0.689,0.632,1.781,1.001,3.276,1.106
		c1.494,0.105,3.621,0.158,6.381,0.158H183.802z"/>
	<path fill="#E63C2A" d="M210.29,11.475c2.941,0,5.414,0.032,7.415,0.095c2,0.063,3.655,0.243,4.966,0.537
		c1.311,0.295,2.321,0.77,3.035,1.422c0.713,0.654,1.229,1.58,1.552,2.781c0.321,1.201,0.518,2.718,0.587,4.551
		c0.068,1.833,0.104,4.098,0.104,6.794c0,2.697-0.035,4.961-0.104,6.794c-0.069,1.833-0.266,3.35-0.587,4.551
		c-0.322,1.201-0.839,2.128-1.552,2.781c-0.714,0.654-1.725,1.128-3.035,1.422c-1.311,0.295-2.966,0.474-4.966,0.537
		c-2.001,0.063-4.474,0.095-7.415,0.095c-2.944,0-5.415-0.032-7.416-0.095c-2-0.063-3.655-0.242-4.966-0.537
		c-1.311-0.294-2.323-0.769-3.035-1.422c-0.714-0.653-1.23-1.58-1.552-2.781c-0.322-1.201-0.518-2.718-0.587-4.551
		c-0.068-1.833-0.104-4.097-0.104-6.794c0-2.696,0.035-4.962,0.104-6.794c0.069-1.833,0.265-3.35,0.587-4.551
		c0.321-1.201,0.838-2.127,1.552-2.781c0.712-0.653,1.725-1.127,3.035-1.422c1.311-0.294,2.966-0.474,4.966-0.537
		C204.875,11.506,207.346,11.475,210.29,11.475z M221.326,27.655c0-2.528-0.059-4.477-0.173-5.847
		c-0.115-1.369-0.517-2.37-1.207-3.002c-0.689-0.632-1.782-1-3.276-1.106c-1.495-0.104-3.621-0.158-6.38-0.158
		c-2.76,0-4.887,0.053-6.381,0.158c-1.495,0.106-2.587,0.474-3.276,1.106c-0.69,0.632-1.093,1.633-1.207,3.002
		c-0.115,1.37-0.173,3.318-0.173,5.847s0.058,4.478,0.173,5.847c0.114,1.37,0.517,2.37,1.207,3.002
		c0.689,0.632,1.781,1.001,3.276,1.106c1.494,0.105,3.621,0.158,6.381,0.158c2.759,0,4.885-0.052,6.38-0.158
		c1.494-0.105,2.587-0.474,3.276-1.106c0.69-0.632,1.092-1.632,1.207-3.002C221.268,32.133,221.326,30.184,221.326,27.655z"/>
	<path fill="#E63C2A" d="M233.742,15.52c0-1.011,0.022-1.791,0.069-2.338c0.045-0.547,0.206-0.948,0.482-1.201
		c0.275-0.252,0.712-0.4,1.311-0.442c0.597-0.042,1.448-0.063,2.552-0.063h30.902c2.575,0,4.736,0.021,6.484,0.063
		c1.747,0.042,3.195,0.201,4.346,0.474c1.148,0.274,2.034,0.695,2.655,1.264s1.08,1.381,1.38,2.434
		c0.298,1.054,0.471,2.392,0.517,4.013c0.046,1.623,0.069,3.593,0.069,5.91v15.169c0,0.758-0.023,1.338-0.069,1.738
		c-0.046,0.401-0.172,0.695-0.379,0.885c-0.207,0.189-0.529,0.306-0.966,0.348c-0.438,0.042-1.069,0.063-1.896,0.063
		c-0.828,0-1.461-0.021-1.897-0.063c-0.438-0.042-0.759-0.158-0.966-0.348c-0.206-0.19-0.334-0.484-0.379-0.885
		c-0.047-0.4-0.069-0.979-0.069-1.738V25.633c0-2.023-0.046-3.581-0.138-4.677c-0.093-1.095-0.414-1.896-0.966-2.402
		c-0.552-0.506-1.426-0.8-2.621-0.885c-1.196-0.084-2.897-0.126-5.104-0.126h-6.622v23.26c0,0.758-0.023,1.338-0.068,1.738
		c-0.047,0.401-0.173,0.695-0.38,0.885c-0.207,0.189-0.529,0.306-0.966,0.348c-0.438,0.042-1.068,0.063-1.896,0.063
		s-1.46-0.021-1.896-0.063c-0.438-0.042-0.759-0.158-0.966-0.348c-0.207-0.19-0.334-0.484-0.38-0.885
		c-0.046-0.4-0.068-0.979-0.068-1.738v-23.26h-15.451v23.26c0,0.758-0.024,1.338-0.069,1.738c-0.046,0.401-0.173,0.695-0.379,0.885
		c-0.207,0.189-0.529,0.306-0.966,0.348c-0.438,0.042-1.069,0.063-1.897,0.063c-0.827,0-1.46-0.021-1.896-0.063
		c-0.438-0.042-0.759-0.158-0.966-0.348c-0.207-0.19-0.334-0.484-0.379-0.885c-0.047-0.4-0.069-0.979-0.069-1.738V15.52z"/>
	<path fill="#E63C2A" d="M290.304,15.52c0-1.011,0.022-1.791,0.069-2.338c0.045-0.547,0.206-0.948,0.482-1.201
		c0.275-0.252,0.712-0.4,1.311-0.442c0.597-0.042,1.448-0.063,2.552-0.063h30.902c2.575,0,4.736,0.021,6.484,0.063
		c1.747,0.042,3.195,0.201,4.346,0.474c1.148,0.274,2.034,0.695,2.655,1.264s1.08,1.381,1.38,2.434
		c0.298,1.054,0.471,2.392,0.517,4.013c0.046,1.623,0.069,3.593,0.069,5.91v15.169c0,0.758-0.023,1.338-0.069,1.738
		c-0.046,0.401-0.172,0.695-0.379,0.885c-0.207,0.189-0.529,0.306-0.966,0.348c-0.438,0.042-1.069,0.063-1.896,0.063
		c-0.828,0-1.461-0.021-1.897-0.063c-0.438-0.042-0.759-0.158-0.966-0.348c-0.206-0.19-0.334-0.484-0.379-0.885
		c-0.047-0.4-0.069-0.979-0.069-1.738V25.633c0-2.023-0.046-3.581-0.138-4.677c-0.093-1.095-0.414-1.896-0.966-2.402
		c-0.552-0.506-1.426-0.8-2.621-0.885c-1.196-0.084-2.897-0.126-5.104-0.126h-6.622v23.26c0,0.758-0.023,1.338-0.068,1.738
		c-0.047,0.401-0.173,0.695-0.38,0.885c-0.207,0.189-0.529,0.306-0.966,0.348c-0.438,0.042-1.068,0.063-1.896,0.063
		s-1.46-0.021-1.896-0.063c-0.438-0.042-0.759-0.158-0.966-0.348c-0.207-0.19-0.334-0.484-0.38-0.885
		c-0.046-0.4-0.068-0.979-0.068-1.738v-23.26h-15.451v23.26c0,0.758-0.024,1.338-0.069,1.738c-0.046,0.401-0.173,0.695-0.379,0.885
		c-0.207,0.189-0.529,0.306-0.966,0.348c-0.438,0.042-1.069,0.063-1.897,0.063c-0.827,0-1.46-0.021-1.896-0.063
		c-0.438-0.042-0.759-0.158-0.966-0.348c-0.207-0.19-0.334-0.484-0.379-0.885c-0.047-0.4-0.069-0.979-0.069-1.738V15.52z"/>
</g>
<g>
	<path fill="#231F20" d="M109.419,81.018c0-1.367,0.027-2.42,0.085-3.16c0.056-0.74,0.256-1.281,0.598-1.623
		s0.883-0.541,1.623-0.598c0.739-0.057,1.794-0.086,3.16-0.086h38.268c3.188,0,5.864,0.029,8.029,0.086
		c2.163,0.057,3.957,0.271,5.381,0.641c1.423,0.371,2.52,0.939,3.289,1.707c0.769,0.77,1.337,1.867,1.708,3.289
		c0.369,1.424,0.583,3.232,0.641,5.424c0.056,2.193,0.085,4.855,0.085,7.986v20.5c0,1.025-0.029,1.809-0.085,2.35
		c-0.058,0.542-0.214,0.939-0.47,1.195c-0.257,0.257-0.655,0.414-1.196,0.471c-0.542,0.057-1.323,0.085-2.349,0.085
		s-1.809-0.028-2.349-0.085c-0.542-0.057-0.94-0.214-1.196-0.471c-0.256-0.256-0.414-0.653-0.47-1.195
		c-0.058-0.541-0.086-1.324-0.086-2.35v-20.5c0-2.732-0.057-4.839-0.17-6.32c-0.115-1.48-0.513-2.562-1.196-3.246
		s-1.766-1.081-3.246-1.195c-1.481-0.113-3.587-0.172-6.32-0.172h-8.2v31.434c0,1.025-0.029,1.809-0.086,2.35
		c-0.057,0.542-0.213,0.939-0.47,1.195c-0.256,0.257-0.655,0.414-1.195,0.471c-0.542,0.057-1.324,0.085-2.35,0.085
		c-1.024,0-1.808-0.028-2.349-0.085c-0.542-0.057-0.939-0.214-1.195-0.471c-0.257-0.256-0.414-0.653-0.471-1.195
		c-0.057-0.541-0.085-1.324-0.085-2.35V83.75h-19.134v31.434c0,1.025-0.029,1.809-0.085,2.35c-0.058,0.542-0.214,0.939-0.47,1.195
		c-0.257,0.257-0.655,0.414-1.196,0.471c-0.542,0.057-1.323,0.085-2.349,0.085s-1.809-0.028-2.349-0.085
		c-0.542-0.057-0.94-0.214-1.196-0.471c-0.256-0.256-0.414-0.653-0.47-1.195c-0.058-0.541-0.085-1.324-0.085-2.35V81.018z"/>
	<path fill="#231F20" d="M216.018,111.084c1.025,0,1.808,0.029,2.35,0.086c0.54,0.057,0.939,0.213,1.195,0.469
		c0.257,0.257,0.413,0.656,0.47,1.196c0.057,0.542,0.086,1.324,0.086,2.349c0,1.025-0.029,1.809-0.086,2.35
		c-0.057,0.542-0.213,0.939-0.47,1.195c-0.256,0.257-0.655,0.414-1.195,0.471c-0.542,0.057-1.324,0.085-2.35,0.085h-15.033
		c-3.645,0-6.705-0.042-9.182-0.128c-2.478-0.086-4.527-0.327-6.15-0.727c-1.623-0.397-2.876-1.038-3.759-1.922
		c-0.883-0.882-1.523-2.135-1.922-3.758s-0.641-3.674-0.726-6.15c-0.086-2.477-0.128-5.537-0.128-9.182s0.042-6.705,0.128-9.184
		c0.085-2.477,0.327-4.526,0.726-6.149s1.039-2.874,1.922-3.759c0.883-0.882,2.136-1.522,3.759-1.922
		c1.623-0.396,3.673-0.641,6.15-0.726c2.477-0.085,5.537-0.128,9.182-0.128c3.644,0,6.705,0.043,9.183,0.128s4.527,0.329,6.15,0.726
		c1.622,0.399,2.874,1.025,3.758,1.88c0.883,0.854,1.523,2.036,1.922,3.544c0.397,1.51,0.641,3.418,0.727,5.724
		c0.085,2.306,0.128,5.14,0.128,8.499c0,1.367-0.029,2.421-0.086,3.16c-0.057,0.74-0.256,1.281-0.598,1.623
		s-0.884,0.542-1.623,0.598c-0.74,0.058-1.794,0.086-3.16,0.086h-30.066c0,2.392,0.056,4.229,0.17,5.51s0.471,2.221,1.068,2.818
		s1.537,0.954,2.818,1.067c1.281,0.115,3.118,0.171,5.51,0.171H216.018z M214.651,93.317c0-2.392-0.058-4.228-0.171-5.509
		c-0.114-1.281-0.47-2.222-1.067-2.819c-0.599-0.599-1.538-0.953-2.819-1.067c-1.281-0.113-3.117-0.172-5.509-0.172h-8.2
		c-2.392,0-4.229,0.059-5.51,0.172c-1.281,0.114-2.221,0.469-2.818,1.067c-0.598,0.598-0.954,1.538-1.068,2.819
		s-0.17,3.117-0.17,5.509H214.651z"/>
	<path fill="#231F20" d="M251.551,119.284c-3.645,0-6.72-0.042-9.225-0.128c-2.507-0.086-4.57-0.327-6.193-0.727
		c-1.622-0.397-2.861-1.038-3.715-1.922c-0.854-0.882-1.495-2.135-1.922-3.758c-0.428-1.623-0.67-3.674-0.727-6.15
		c-0.058-2.477-0.085-5.537-0.085-9.182s0.042-6.705,0.128-9.184c0.085-2.477,0.327-4.526,0.726-6.149s1.039-2.874,1.922-3.759
		c0.883-0.882,2.136-1.522,3.759-1.922c1.623-0.396,3.673-0.641,6.15-0.726c2.477-0.085,5.537-0.128,9.182-0.128h13.667V63.25
		c0-1.024,0.028-1.807,0.085-2.349c0.057-0.54,0.214-0.939,0.471-1.196c0.256-0.256,0.653-0.412,1.195-0.47
		c0.541-0.056,1.324-0.085,2.349-0.085c1.025,0,1.808,0.029,2.35,0.085c0.54,0.058,0.939,0.214,1.195,0.47
		c0.257,0.256,0.413,0.656,0.47,1.196c0.057,0.542,0.086,1.324,0.086,2.349v50.567c0,1.366-0.029,2.421-0.086,3.161
		s-0.256,1.281-0.598,1.623c-0.342,0.341-0.884,0.541-1.623,0.598c-0.74,0.057-1.794,0.085-3.16,0.085H251.551z M265.218,111.084
		V83.75h-13.667c-3.416,0-6.051,0.072-7.9,0.215c-1.852,0.143-3.203,0.641-4.058,1.494s-1.354,2.207-1.495,4.057
		c-0.143,1.852-0.213,4.484-0.213,7.902c0,3.416,0.07,6.051,0.213,7.9c0.142,1.852,0.641,3.203,1.495,4.058s2.206,1.353,4.058,1.495
		c1.85,0.143,4.484,0.213,7.9,0.213H265.218z"/>
	<path fill="#231F20" d="M281.361,64.617c0-1.081,0.028-1.907,0.085-2.477c0.057-0.568,0.228-0.996,0.513-1.281
		c0.284-0.284,0.712-0.455,1.281-0.513c0.568-0.056,1.395-0.085,2.478-0.085c1.081,0,1.907,0.03,2.477,0.085
		c0.569,0.058,0.996,0.229,1.281,0.513c0.284,0.286,0.455,0.713,0.513,1.281c0.057,0.57,0.086,1.396,0.086,2.477
		c0,1.082-0.029,1.908-0.086,2.477c-0.058,0.57-0.229,0.998-0.513,1.281c-0.285,0.286-0.712,0.457-1.281,0.514
		s-1.396,0.085-2.477,0.085c-1.083,0-1.909-0.028-2.478-0.085c-0.569-0.057-0.997-0.228-1.281-0.514
		c-0.285-0.283-0.456-0.711-0.513-1.281C281.39,66.525,281.361,65.699,281.361,64.617z M281.617,79.65
		c0-1.025,0.028-1.807,0.086-2.349c0.056-0.54,0.214-0.939,0.47-1.196c0.256-0.256,0.654-0.412,1.195-0.469s1.324-0.086,2.35-0.086
		c1.024,0,1.807,0.029,2.349,0.086c0.541,0.057,0.939,0.213,1.196,0.469c0.256,0.257,0.412,0.656,0.47,1.196
		c0.056,0.542,0.085,1.323,0.085,2.349v35.533c0,1.025-0.029,1.809-0.085,2.35c-0.058,0.542-0.214,0.939-0.47,1.195
		c-0.257,0.257-0.655,0.414-1.196,0.471c-0.542,0.057-1.324,0.085-2.349,0.085c-1.025,0-1.809-0.028-2.35-0.085
		s-0.939-0.214-1.195-0.471c-0.256-0.256-0.414-0.653-0.47-1.195c-0.058-0.541-0.086-1.324-0.086-2.35V79.65z"/>
	<path fill="#231F20" d="M332.866,93.317c0-2.392-0.058-4.228-0.171-5.509c-0.114-1.281-0.47-2.222-1.067-2.819
		c-0.599-0.599-1.538-0.953-2.819-1.067c-1.281-0.113-3.117-0.172-5.509-0.172h-19.134c-1.025,0-1.809-0.027-2.349-0.085
		c-0.542-0.056-0.939-0.214-1.196-0.47c-0.256-0.256-0.414-0.654-0.47-1.195c-0.058-0.541-0.085-1.324-0.085-2.35
		s0.027-1.807,0.085-2.349c0.056-0.54,0.214-0.939,0.47-1.196c0.257-0.256,0.654-0.412,1.196-0.469
		c0.54-0.057,1.323-0.086,2.349-0.086h15.033c3.644,0,6.705,0.043,9.183,0.128s4.527,0.329,6.15,0.726
		c1.622,0.399,2.874,1.04,3.758,1.922c0.883,0.885,1.523,2.136,1.922,3.759c0.397,1.623,0.641,3.673,0.727,6.149
		c0.085,2.479,0.128,5.539,0.128,9.184v16.399c0,1.366-0.029,2.421-0.086,3.161s-0.256,1.281-0.598,1.623
		c-0.342,0.341-0.884,0.541-1.623,0.598c-0.74,0.057-1.794,0.085-3.16,0.085h-25.283c-3.246,0-5.738-0.071-7.475-0.214
		c-1.737-0.141-3.019-0.625-3.844-1.451c-0.826-0.825-1.311-2.106-1.452-3.844c-0.143-1.736-0.213-4.229-0.213-7.475
		s0.07-5.736,0.213-7.475c0.142-1.736,0.626-3.018,1.452-3.844c0.825-0.824,2.106-1.309,3.844-1.451
		c1.736-0.142,4.229-0.214,7.475-0.214H332.866z M332.866,111.084v-9.566h-22.55c-1.196,0-2.107,0.029-2.733,0.086
		c-0.628,0.057-1.098,0.242-1.409,0.555c-0.314,0.313-0.5,0.783-0.556,1.409c-0.058,0.628-0.085,1.538-0.085,2.733
		s0.027,2.107,0.085,2.733c0.056,0.628,0.241,1.097,0.556,1.409c0.312,0.314,0.781,0.5,1.409,0.555
		c0.626,0.059,1.537,0.086,2.733,0.086H332.866z"/>
</g>
<path fill="#20A5DB" d="M10.207,104.045c0,0.373-0.302,0.674-0.675,0.674H3.971c-0.372,0-0.675-0.301-0.675-0.674V92.909
	c0-0.372,0.303-0.674,0.675-0.674h5.562c0.373,0,0.675,0.302,0.675,0.674V104.045z"/>
<path fill="#20A5DB" d="M21.174,108.206c0,0.372-0.303,0.674-0.675,0.674h-5.616c-0.374,0-0.676-0.302-0.676-0.674V88.748
	c0-0.373,0.302-0.674,0.676-0.674h5.616c0.372,0,0.675,0.301,0.675,0.674V108.206z"/>
<path fill="#20A5DB" d="M43.396,108.206c0,0.372-0.302,0.674-0.674,0.674h-5.618c-0.373,0-0.674-0.302-0.674-0.674V88.748
	c0-0.373,0.301-0.674,0.674-0.674h5.618c0.372,0,0.674,0.301,0.674,0.674V108.206z"/>
<path fill="#20A5DB" d="M65.501,108.206c0,0.372-0.303,0.674-0.675,0.674h-5.617c-0.372,0-0.674-0.302-0.674-0.674V88.748
	c0-0.373,0.302-0.674,0.674-0.674h5.617c0.372,0,0.675,0.301,0.675,0.674V108.206z"/>
<path fill="#20A5DB" d="M87.608,108.206c0,0.373-0.303,0.675-0.675,0.675h-5.618c-0.372,0-0.674-0.302-0.674-0.675V88.748
	c0-0.372,0.302-0.674,0.674-0.674h5.618c0.372,0,0.675,0.302,0.675,0.674V108.206z"/>
<path fill="#20A5DB" d="M98.633,104.045c0,0.373-0.301,0.674-0.674,0.674h-5.562c-0.371,0-0.673-0.301-0.673-0.674V92.909
	c0-0.372,0.302-0.674,0.673-0.674h5.562c0.373,0,0.674,0.302,0.674,0.674V104.045z"/>
<path fill="#20A5DB" d="M32.297,118.61c0,0.372-0.302,0.674-0.674,0.674h-5.562c-0.372,0-0.674-0.302-0.674-0.674V76.264
	c0-0.372,0.302-0.674,0.674-0.674h5.562c0.372,0,0.674,0.302,0.674,0.674V118.61z"/>
<path fill="#20A5DB" d="M54.421,118.61c0,0.372-0.303,0.674-0.675,0.674h-5.561c-0.372,0-0.676-0.302-0.676-0.674V76.264
	c0-0.372,0.304-0.674,0.676-0.674h5.561c0.372,0,0.675,0.302,0.675,0.674V118.61z"/>
<path fill="#20A5DB" d="M76.525,118.61c0,0.372-0.3,0.674-0.674,0.674h-5.561c-0.373,0-0.674-0.302-0.674-0.674V76.264
	c0-0.372,0.301-0.674,0.674-0.674h5.561c0.374,0,0.674,0.302,0.674,0.674V118.61z"/>
</svg>
